# xmcd CD database file
#
# Track frame offsets:
#	150
#	14452
#	28834
#	43130
#	59194
#	74960
#	91323
#	104992
#	118463
#	131720
#	144668
#	158246
#	172534
#	184784
#	196916
#	210607
#	223583
#	238504
#	252882
#	266761
#	280544
#	294170
#	308589
#	322313
#
# Disc length: 4468 seconds
#
# Revision: 0
# Processed by: cddbd v1.5.1PL0 Copyright (c) Steve Scherf et al.
# Submitted via: CDex 1.51
#
DISCID=80117218
DTITLE=John Lee Hooker - Boogie Chillen
DYEAR=2000
DGENRE=Blues
TTITLE0=Boogie Chillen
TTITLE1=Sally Mae
TTITLE2=Stomp Boogie
TTITLE3=Black Man Blues
TTITLE4=Landing Blues
TTITLE5=Low Down Midnite Boogie
TTITLE6=Hobo Blues
TTITLE7=Drifting from Door to Door
TTITLE8=Hoogie Boogie
TTITLE9=Nightmare Blues
TTITLE10=Crawling King Snake
TTITLE11=Whistlin´ and Moanin´ Blues
TTITLE12=Burnin´ Hell
TTITLE13=Miss Eloise
TTITLE14=Late Last Night
TTITLE15=Devil´s Jump
TTITLE16=Wandering Blues
TTITLE17=Don´t go Baby
TTITLE18=I´m Gonna Kill That Woman
TTITLE19=Slim´s Stomp
TTITLE20=Moaning Blues
TTITLE21=The Numbers
TTITLE22=Heart Trouble Blues
TTITLE23=Weeping Willow Boogie
EXTD=YEAR: 2000
EXTT0=
EXTT1=
EXTT2=
EXTT3=
EXTT4=
EXTT5=
EXTT6=
EXTT7=
EXTT8=
EXTT9=
EXTT10=
EXTT11=
EXTT12=
EXTT13=
EXTT14=
EXTT15=
EXTT16=
EXTT17=
EXTT18=
EXTT19=
EXTT20=
EXTT21=
EXTT22=
EXTT23=
PLAYORDER=
